<?xml version="1.0" encoding="utf-8"?>
<svg xmlns="http://www.w3.org/2000/svg" xmlns:xlink="http://www.w3.org/1999/xlink" width="600" height="400" viewBox="0 0 2400 1600">
<defs>
  <clipPath id="clip650">
    <rect x="0" y="0" width="2400" height="1600"/>
  </clipPath>
</defs>
<path clip-path="url(#clip650)" d="
M0 1600 L2400 1600 L2400 0 L0 0  Z
  " fill="#ffffff" fill-rule="evenodd" fill-opacity="1"/>
<defs>
  <clipPath id="clip651">
    <rect x="480" y="0" width="1681" height="1600"/>
  </clipPath>
</defs>
<defs>
  <clipPath id="clip652">
    <rect x="249" y="47" width="2104" height="1377"/>
  </clipPath>
</defs>
<path clip-path="url(#clip650)" d="
M249.542 1423.18 L2352.76 1423.18 L2352.76 47.2441 L249.542 47.2441  Z
  " fill="#ffffff" fill-rule="evenodd" fill-opacity="1"/>
<polyline clip-path="url(#clip652)" style="stroke:#000000; stroke-linecap:round; stroke-linejoin:round; stroke-width:2; stroke-opacity:0.1; fill:none" points="
  309.067,1423.18 309.067,47.2441 
  "/>
<polyline clip-path="url(#clip652)" style="stroke:#000000; stroke-linecap:round; stroke-linejoin:round; stroke-width:2; stroke-opacity:0.1; fill:none" points="
  805.108,1423.18 805.108,47.2441 
  "/>
<polyline clip-path="url(#clip652)" style="stroke:#000000; stroke-linecap:round; stroke-linejoin:round; stroke-width:2; stroke-opacity:0.1; fill:none" points="
  1301.15,1423.18 1301.15,47.2441 
  "/>
<polyline clip-path="url(#clip652)" style="stroke:#000000; stroke-linecap:round; stroke-linejoin:round; stroke-width:2; stroke-opacity:0.1; fill:none" points="
  1797.19,1423.18 1797.19,47.2441 
  "/>
<polyline clip-path="url(#clip652)" style="stroke:#000000; stroke-linecap:round; stroke-linejoin:round; stroke-width:2; stroke-opacity:0.1; fill:none" points="
  2293.23,1423.18 2293.23,47.2441 
  "/>
<polyline clip-path="url(#clip650)" style="stroke:#000000; stroke-linecap:round; stroke-linejoin:round; stroke-width:4; stroke-opacity:1; fill:none" points="
  249.542,1423.18 2352.76,1423.18 
  "/>
<polyline clip-path="url(#clip650)" style="stroke:#000000; stroke-linecap:round; stroke-linejoin:round; stroke-width:4; stroke-opacity:1; fill:none" points="
  309.067,1423.18 309.067,1404.28 
  "/>
<polyline clip-path="url(#clip650)" style="stroke:#000000; stroke-linecap:round; stroke-linejoin:round; stroke-width:4; stroke-opacity:1; fill:none" points="
  805.108,1423.18 805.108,1404.28 
  "/>
<polyline clip-path="url(#clip650)" style="stroke:#000000; stroke-linecap:round; stroke-linejoin:round; stroke-width:4; stroke-opacity:1; fill:none" points="
  1301.15,1423.18 1301.15,1404.28 
  "/>
<polyline clip-path="url(#clip650)" style="stroke:#000000; stroke-linecap:round; stroke-linejoin:round; stroke-width:4; stroke-opacity:1; fill:none" points="
  1797.19,1423.18 1797.19,1404.28 
  "/>
<polyline clip-path="url(#clip650)" style="stroke:#000000; stroke-linecap:round; stroke-linejoin:round; stroke-width:4; stroke-opacity:1; fill:none" points="
  2293.23,1423.18 2293.23,1404.28 
  "/>
<path clip-path="url(#clip650)" d="M286.451 1454.1 Q282.84 1454.1 281.012 1457.66 Q279.206 1461.2 279.206 1468.33 Q279.206 1475.44 281.012 1479.01 Q282.84 1482.55 286.451 1482.55 Q290.086 1482.55 291.891 1479.01 Q293.72 1475.44 293.72 1468.33 Q293.72 1461.2 291.891 1457.66 Q290.086 1454.1 286.451 1454.1 M286.451 1450.39 Q292.261 1450.39 295.317 1455 Q298.396 1459.58 298.396 1468.33 Q298.396 1477.06 295.317 1481.67 Q292.261 1486.25 286.451 1486.25 Q280.641 1486.25 277.562 1481.67 Q274.507 1477.06 274.507 1468.33 Q274.507 1459.58 277.562 1455 Q280.641 1450.39 286.451 1450.39 Z" fill="#000000" fill-rule="evenodd" fill-opacity="1" /><path clip-path="url(#clip650)" d="M306.613 1479.7 L311.497 1479.7 L311.497 1485.58 L306.613 1485.58 L306.613 1479.7 Z" fill="#000000" fill-rule="evenodd" fill-opacity="1" /><path clip-path="url(#clip650)" d="M331.683 1454.1 Q328.071 1454.1 326.243 1457.66 Q324.437 1461.2 324.437 1468.33 Q324.437 1475.44 326.243 1479.01 Q328.071 1482.55 331.683 1482.55 Q335.317 1482.55 337.122 1479.01 Q338.951 1475.44 338.951 1468.33 Q338.951 1461.2 337.122 1457.66 Q335.317 1454.1 331.683 1454.1 M331.683 1450.39 Q337.493 1450.39 340.548 1455 Q343.627 1459.58 343.627 1468.33 Q343.627 1477.06 340.548 1481.67 Q337.493 1486.25 331.683 1486.25 Q325.872 1486.25 322.794 1481.67 Q319.738 1477.06 319.738 1468.33 Q319.738 1459.58 322.794 1455 Q325.872 1450.39 331.683 1450.39 Z" fill="#000000" fill-rule="evenodd" fill-opacity="1" /><path clip-path="url(#clip650)" d="M776.844 1481.64 L793.164 1481.64 L793.164 1485.58 L771.219 1485.58 L771.219 1481.64 Q773.881 1478.89 778.465 1474.26 Q783.071 1469.61 784.252 1468.27 Q786.497 1465.74 787.377 1464.01 Q788.279 1462.25 788.279 1460.56 Q788.279 1457.8 786.335 1456.07 Q784.414 1454.33 781.312 1454.33 Q779.113 1454.33 776.659 1455.09 Q774.228 1455.86 771.451 1457.41 L771.451 1452.69 Q774.275 1451.55 776.728 1450.97 Q779.182 1450.39 781.219 1450.39 Q786.59 1450.39 789.784 1453.08 Q792.978 1455.77 792.978 1460.26 Q792.978 1462.39 792.168 1464.31 Q791.381 1466.2 789.275 1468.8 Q788.696 1469.47 785.594 1472.69 Q782.492 1475.88 776.844 1481.64 Z" fill="#000000" fill-rule="evenodd" fill-opacity="1" /><path clip-path="url(#clip650)" d="M802.978 1479.7 L807.863 1479.7 L807.863 1485.58 L802.978 1485.58 L802.978 1479.7 Z" fill="#000000" fill-rule="evenodd" fill-opacity="1" /><path clip-path="url(#clip650)" d="M818.094 1451.02 L836.45 1451.02 L836.45 1454.96 L822.376 1454.96 L822.376 1463.43 Q823.395 1463.08 824.413 1462.92 Q825.432 1462.73 826.45 1462.73 Q832.237 1462.73 835.617 1465.9 Q838.997 1469.08 838.997 1474.49 Q838.997 1480.07 835.524 1483.17 Q832.052 1486.25 825.733 1486.25 Q823.557 1486.25 821.288 1485.88 Q819.043 1485.51 816.636 1484.77 L816.636 1480.07 Q818.719 1481.2 820.941 1481.76 Q823.163 1482.32 825.64 1482.32 Q829.645 1482.32 831.983 1480.21 Q834.321 1478.1 834.321 1474.49 Q834.321 1470.88 831.983 1468.77 Q829.645 1466.67 825.64 1466.67 Q823.765 1466.67 821.89 1467.08 Q820.038 1467.5 818.094 1468.38 L818.094 1451.02 Z" fill="#000000" fill-rule="evenodd" fill-opacity="1" /><path clip-path="url(#clip650)" d="M1268.31 1451.02 L1286.67 1451.02 L1286.67 1454.96 L1272.6 1454.96 L1272.6 1463.43 Q1273.61 1463.08 1274.63 1462.92 Q1275.65 1462.73 1276.67 1462.73 Q1282.46 1462.73 1285.84 1465.9 Q1289.22 1469.08 1289.22 1474.49 Q1289.22 1480.07 1285.74 1483.17 Q1282.27 1486.25 1275.95 1486.25 Q1273.78 1486.25 1271.51 1485.88 Q1269.26 1485.51 1266.86 1484.77 L1266.86 1480.07 Q1268.94 1481.2 1271.16 1481.76 Q1273.38 1482.32 1275.86 1482.32 Q1279.86 1482.32 1282.2 1480.21 Q1284.54 1478.1 1284.54 1474.49 Q1284.54 1470.88 1282.2 1468.77 Q1279.86 1466.67 1275.86 1466.67 Q1273.98 1466.67 1272.11 1467.08 Q1270.26 1467.5 1268.31 1468.38 L1268.31 1451.02 Z" fill="#000000" fill-rule="evenodd" fill-opacity="1" /><path clip-path="url(#clip650)" d="M1298.43 1479.7 L1303.31 1479.7 L1303.31 1485.58 L1298.43 1485.58 L1298.43 1479.7 Z" fill="#000000" fill-rule="evenodd" fill-opacity="1" /><path clip-path="url(#clip650)" d="M1323.5 1454.1 Q1319.89 1454.1 1318.06 1457.66 Q1316.25 1461.2 1316.25 1468.33 Q1316.25 1475.44 1318.06 1479.01 Q1319.89 1482.55 1323.5 1482.55 Q1327.13 1482.55 1328.94 1479.01 Q1330.77 1475.44 1330.77 1468.33 Q1330.77 1461.2 1328.94 1457.66 Q1327.13 1454.1 1323.5 1454.1 M1323.5 1450.39 Q1329.31 1450.39 1332.36 1455 Q1335.44 1459.58 1335.44 1468.33 Q1335.44 1477.06 1332.36 1481.67 Q1329.31 1486.25 1323.5 1486.25 Q1317.69 1486.25 1314.61 1481.67 Q1311.55 1477.06 1311.55 1468.33 Q1311.55 1459.58 1314.61 1455 Q1317.69 1450.39 1323.5 1450.39 Z" fill="#000000" fill-rule="evenodd" fill-opacity="1" /><path clip-path="url(#clip650)" d="M1763.51 1451.02 L1785.73 1451.02 L1785.73 1453.01 L1773.19 1485.58 L1768.3 1485.58 L1780.11 1454.96 L1763.51 1454.96 L1763.51 1451.02 Z" fill="#000000" fill-rule="evenodd" fill-opacity="1" /><path clip-path="url(#clip650)" d="M1794.85 1479.7 L1799.74 1479.7 L1799.74 1485.58 L1794.85 1485.58 L1794.85 1479.7 Z" fill="#000000" fill-rule="evenodd" fill-opacity="1" /><path clip-path="url(#clip650)" d="M1809.97 1451.02 L1828.32 1451.02 L1828.32 1454.96 L1814.25 1454.96 L1814.25 1463.43 Q1815.27 1463.08 1816.29 1462.92 Q1817.31 1462.73 1818.32 1462.73 Q1824.11 1462.73 1827.49 1465.9 Q1830.87 1469.08 1830.87 1474.49 Q1830.87 1480.07 1827.4 1483.17 Q1823.93 1486.25 1817.61 1486.25 Q1815.43 1486.25 1813.16 1485.88 Q1810.92 1485.51 1808.51 1484.77 L1808.51 1480.07 Q1810.59 1481.2 1812.81 1481.76 Q1815.04 1482.32 1817.51 1482.32 Q1821.52 1482.32 1823.86 1480.21 Q1826.19 1478.1 1826.19 1474.49 Q1826.19 1470.88 1823.86 1468.77 Q1821.52 1466.67 1817.51 1466.67 Q1815.64 1466.67 1813.76 1467.08 Q1811.91 1467.5 1809.97 1468.38 L1809.97 1451.02 Z" fill="#000000" fill-rule="evenodd" fill-opacity="1" /><path clip-path="url(#clip650)" d="M2245.3 1481.64 L2252.94 1481.64 L2252.94 1455.28 L2244.63 1456.95 L2244.63 1452.69 L2252.9 1451.02 L2257.57 1451.02 L2257.57 1481.64 L2265.21 1481.64 L2265.21 1485.58 L2245.3 1485.58 L2245.3 1481.64 Z" fill="#000000" fill-rule="evenodd" fill-opacity="1" /><path clip-path="url(#clip650)" d="M2284.65 1454.1 Q2281.04 1454.1 2279.21 1457.66 Q2277.41 1461.2 2277.41 1468.33 Q2277.41 1475.44 2279.21 1479.01 Q2281.04 1482.55 2284.65 1482.55 Q2288.29 1482.55 2290.09 1479.01 Q2291.92 1475.44 2291.92 1468.33 Q2291.92 1461.2 2290.09 1457.66 Q2288.29 1454.1 2284.65 1454.1 M2284.65 1450.39 Q2290.46 1450.39 2293.52 1455 Q2296.6 1459.58 2296.6 1468.33 Q2296.6 1477.06 2293.52 1481.67 Q2290.46 1486.25 2284.65 1486.25 Q2278.84 1486.25 2275.77 1481.67 Q2272.71 1477.06 2272.71 1468.33 Q2272.71 1459.58 2275.77 1455 Q2278.84 1450.39 2284.65 1450.39 Z" fill="#000000" fill-rule="evenodd" fill-opacity="1" /><path clip-path="url(#clip650)" d="M2304.82 1479.7 L2309.7 1479.7 L2309.7 1485.58 L2304.82 1485.58 L2304.82 1479.7 Z" fill="#000000" fill-rule="evenodd" fill-opacity="1" /><path clip-path="url(#clip650)" d="M2329.89 1454.1 Q2326.27 1454.1 2324.45 1457.66 Q2322.64 1461.2 2322.64 1468.33 Q2322.64 1475.44 2324.45 1479.01 Q2326.27 1482.55 2329.89 1482.55 Q2333.52 1482.55 2335.33 1479.01 Q2337.15 1475.44 2337.15 1468.33 Q2337.15 1461.2 2335.33 1457.66 Q2333.52 1454.1 2329.89 1454.1 M2329.89 1450.39 Q2335.7 1450.39 2338.75 1455 Q2341.83 1459.58 2341.83 1468.33 Q2341.83 1477.06 2338.75 1481.67 Q2335.7 1486.25 2329.89 1486.25 Q2324.08 1486.25 2321 1481.67 Q2317.94 1477.06 2317.94 1468.33 Q2317.94 1459.58 2321 1455 Q2324.08 1450.39 2329.89 1450.39 Z" fill="#000000" fill-rule="evenodd" fill-opacity="1" /><path clip-path="url(#clip650)" d="M1309.62 1531.91 Q1309.62 1532.81 1309.2 1533.04 Q1308.78 1533.23 1307.62 1533.23 L1301.44 1533.23 L1296.54 1552.69 Q1296.16 1554.39 1296.16 1555.84 Q1296.16 1557.45 1296.64 1558.16 Q1297.16 1558.87 1298.22 1558.87 Q1300.31 1558.87 1302.57 1556.97 Q1304.85 1555.07 1306.79 1550.43 Q1307.04 1549.82 1307.17 1549.69 Q1307.33 1549.53 1307.75 1549.53 Q1308.56 1549.53 1308.56 1550.17 Q1308.56 1550.4 1308.11 1551.43 Q1307.69 1552.46 1306.75 1553.97 Q1305.85 1555.49 1304.66 1556.9 Q1303.5 1558.32 1301.73 1559.35 Q1299.96 1560.35 1298.06 1560.35 Q1295.38 1560.35 1293.68 1558.64 Q1292 1556.94 1292 1554.26 Q1292 1553.39 1292.68 1550.62 Q1293.36 1547.82 1297.03 1533.23 L1291.2 1533.23 Q1290.39 1533.23 1290.07 1533.2 Q1289.78 1533.17 1289.56 1533.01 Q1289.36 1532.81 1289.36 1532.43 Q1289.36 1531.82 1289.62 1531.56 Q1289.88 1531.27 1290.2 1531.24 Q1290.55 1531.17 1291.36 1531.17 L1297.54 1531.17 L1300.12 1520.71 Q1300.38 1519.67 1301.02 1519.09 Q1301.7 1518.48 1302.08 1518.42 Q1302.47 1518.32 1302.76 1518.32 Q1303.63 1518.32 1304.14 1518.81 Q1304.66 1519.26 1304.66 1520.09 Q1304.66 1520.54 1301.95 1531.17 L1307.75 1531.17 Q1308.49 1531.17 1308.78 1531.2 Q1309.1 1531.24 1309.36 1531.4 Q1309.62 1531.56 1309.62 1531.91 Z" fill="#000000" fill-rule="evenodd" fill-opacity="1" /><polyline clip-path="url(#clip652)" style="stroke:#000000; stroke-linecap:round; stroke-linejoin:round; stroke-width:2; stroke-opacity:0.1; fill:none" points="
  249.542,1384.24 2352.76,1384.24 
  "/>
<polyline clip-path="url(#clip652)" style="stroke:#000000; stroke-linecap:round; stroke-linejoin:round; stroke-width:2; stroke-opacity:0.1; fill:none" points="
  249.542,1062.94 2352.76,1062.94 
  "/>
<polyline clip-path="url(#clip652)" style="stroke:#000000; stroke-linecap:round; stroke-linejoin:round; stroke-width:2; stroke-opacity:0.1; fill:none" points="
  249.542,741.639 2352.76,741.639 
  "/>
<polyline clip-path="url(#clip652)" style="stroke:#000000; stroke-linecap:round; stroke-linejoin:round; stroke-width:2; stroke-opacity:0.1; fill:none" points="
  249.542,420.34 2352.76,420.34 
  "/>
<polyline clip-path="url(#clip652)" style="stroke:#000000; stroke-linecap:round; stroke-linejoin:round; stroke-width:2; stroke-opacity:0.1; fill:none" points="
  249.542,99.0403 2352.76,99.0403 
  "/>
<polyline clip-path="url(#clip650)" style="stroke:#000000; stroke-linecap:round; stroke-linejoin:round; stroke-width:4; stroke-opacity:1; fill:none" points="
  249.542,1423.18 249.542,47.2441 
  "/>
<polyline clip-path="url(#clip650)" style="stroke:#000000; stroke-linecap:round; stroke-linejoin:round; stroke-width:4; stroke-opacity:1; fill:none" points="
  249.542,1384.24 268.44,1384.24 
  "/>
<polyline clip-path="url(#clip650)" style="stroke:#000000; stroke-linecap:round; stroke-linejoin:round; stroke-width:4; stroke-opacity:1; fill:none" points="
  249.542,1062.94 268.44,1062.94 
  "/>
<polyline clip-path="url(#clip650)" style="stroke:#000000; stroke-linecap:round; stroke-linejoin:round; stroke-width:4; stroke-opacity:1; fill:none" points="
  249.542,741.639 268.44,741.639 
  "/>
<polyline clip-path="url(#clip650)" style="stroke:#000000; stroke-linecap:round; stroke-linejoin:round; stroke-width:4; stroke-opacity:1; fill:none" points="
  249.542,420.34 268.44,420.34 
  "/>
<polyline clip-path="url(#clip650)" style="stroke:#000000; stroke-linecap:round; stroke-linejoin:round; stroke-width:4; stroke-opacity:1; fill:none" points="
  249.542,99.0403 268.44,99.0403 
  "/>
<path clip-path="url(#clip650)" d="M126.205 1370.04 Q122.593 1370.04 120.765 1373.6 Q118.959 1377.14 118.959 1384.27 Q118.959 1391.38 120.765 1394.94 Q122.593 1398.49 126.205 1398.49 Q129.839 1398.49 131.644 1394.94 Q133.473 1391.38 133.473 1384.27 Q133.473 1377.14 131.644 1373.6 Q129.839 1370.04 126.205 1370.04 M126.205 1366.33 Q132.015 1366.33 135.07 1370.94 Q138.149 1375.52 138.149 1384.27 Q138.149 1393 135.07 1397.61 Q132.015 1402.19 126.205 1402.19 Q120.394 1402.19 117.316 1397.61 Q114.26 1393 114.26 1384.27 Q114.26 1375.52 117.316 1370.94 Q120.394 1366.33 126.205 1366.33 Z" fill="#000000" fill-rule="evenodd" fill-opacity="1" /><path clip-path="url(#clip650)" d="M146.366 1395.64 L151.251 1395.64 L151.251 1401.52 L146.366 1401.52 L146.366 1395.64 Z" fill="#000000" fill-rule="evenodd" fill-opacity="1" /><path clip-path="url(#clip650)" d="M171.436 1370.04 Q167.825 1370.04 165.996 1373.6 Q164.19 1377.14 164.19 1384.27 Q164.19 1391.38 165.996 1394.94 Q167.825 1398.49 171.436 1398.49 Q175.07 1398.49 176.876 1394.94 Q178.704 1391.38 178.704 1384.27 Q178.704 1377.14 176.876 1373.6 Q175.07 1370.04 171.436 1370.04 M171.436 1366.33 Q177.246 1366.33 180.301 1370.94 Q183.38 1375.52 183.38 1384.27 Q183.38 1393 180.301 1397.61 Q177.246 1402.19 171.436 1402.19 Q165.626 1402.19 162.547 1397.61 Q159.491 1393 159.491 1384.27 Q159.491 1375.52 162.547 1370.94 Q165.626 1366.33 171.436 1366.33 Z" fill="#000000" fill-rule="evenodd" fill-opacity="1" /><path clip-path="url(#clip650)" d="M201.598 1370.04 Q197.987 1370.04 196.158 1373.6 Q194.352 1377.14 194.352 1384.27 Q194.352 1391.38 196.158 1394.94 Q197.987 1398.49 201.598 1398.49 Q205.232 1398.49 207.037 1394.94 Q208.866 1391.38 208.866 1384.27 Q208.866 1377.14 207.037 1373.6 Q205.232 1370.04 201.598 1370.04 M201.598 1366.33 Q207.408 1366.33 210.463 1370.94 Q213.542 1375.52 213.542 1384.27 Q213.542 1393 210.463 1397.61 Q207.408 1402.19 201.598 1402.19 Q195.787 1402.19 192.709 1397.61 Q189.653 1393 189.653 1384.27 Q189.653 1375.52 192.709 1370.94 Q195.787 1366.33 201.598 1366.33 Z" fill="#000000" fill-rule="evenodd" fill-opacity="1" /><path clip-path="url(#clip650)" d="M127.2 1048.74 Q123.589 1048.74 121.76 1052.3 Q119.955 1055.84 119.955 1062.97 Q119.955 1070.08 121.76 1073.64 Q123.589 1077.19 127.2 1077.19 Q130.834 1077.19 132.64 1073.64 Q134.468 1070.08 134.468 1062.97 Q134.468 1055.84 132.64 1052.3 Q130.834 1048.74 127.2 1048.74 M127.2 1045.03 Q133.01 1045.03 136.066 1049.64 Q139.144 1054.22 139.144 1062.97 Q139.144 1071.7 136.066 1076.31 Q133.01 1080.89 127.2 1080.89 Q121.39 1080.89 118.311 1076.31 Q115.256 1071.7 115.256 1062.97 Q115.256 1054.22 118.311 1049.64 Q121.39 1045.03 127.2 1045.03 Z" fill="#000000" fill-rule="evenodd" fill-opacity="1" /><path clip-path="url(#clip650)" d="M147.362 1074.34 L152.246 1074.34 L152.246 1080.22 L147.362 1080.22 L147.362 1074.34 Z" fill="#000000" fill-rule="evenodd" fill-opacity="1" /><path clip-path="url(#clip650)" d="M166.459 1076.28 L182.778 1076.28 L182.778 1080.22 L160.834 1080.22 L160.834 1076.28 Q163.496 1073.53 168.079 1068.9 Q172.686 1064.25 173.866 1062.9 Q176.112 1060.38 176.991 1058.64 Q177.894 1056.89 177.894 1055.2 Q177.894 1052.44 175.95 1050.71 Q174.028 1048.97 170.927 1048.97 Q168.727 1048.97 166.274 1049.73 Q163.843 1050.5 161.065 1052.05 L161.065 1047.33 Q163.89 1046.19 166.343 1045.61 Q168.797 1045.03 170.834 1045.03 Q176.204 1045.03 179.399 1047.72 Q182.593 1050.4 182.593 1054.89 Q182.593 1057.02 181.783 1058.95 Q180.996 1060.84 178.889 1063.44 Q178.311 1064.11 175.209 1067.33 Q172.107 1070.52 166.459 1076.28 Z" fill="#000000" fill-rule="evenodd" fill-opacity="1" /><path clip-path="url(#clip650)" d="M192.639 1045.66 L210.996 1045.66 L210.996 1049.59 L196.922 1049.59 L196.922 1058.07 Q197.94 1057.72 198.959 1057.56 Q199.977 1057.37 200.996 1057.37 Q206.783 1057.37 210.162 1060.54 Q213.542 1063.71 213.542 1069.13 Q213.542 1074.71 210.07 1077.81 Q206.598 1080.89 200.278 1080.89 Q198.102 1080.89 195.834 1080.52 Q193.588 1080.15 191.181 1079.41 L191.181 1074.71 Q193.264 1075.84 195.487 1076.4 Q197.709 1076.95 200.186 1076.95 Q204.19 1076.95 206.528 1074.85 Q208.866 1072.74 208.866 1069.13 Q208.866 1065.52 206.528 1063.41 Q204.19 1061.31 200.186 1061.31 Q198.311 1061.31 196.436 1061.72 Q194.584 1062.14 192.639 1063.02 L192.639 1045.66 Z" fill="#000000" fill-rule="evenodd" fill-opacity="1" /><path clip-path="url(#clip650)" d="M126.205 727.438 Q122.593 727.438 120.765 731.003 Q118.959 734.544 118.959 741.674 Q118.959 748.78 120.765 752.345 Q122.593 755.887 126.205 755.887 Q129.839 755.887 131.644 752.345 Q133.473 748.78 133.473 741.674 Q133.473 734.544 131.644 731.003 Q129.839 727.438 126.205 727.438 M126.205 723.734 Q132.015 723.734 135.07 728.341 Q138.149 732.924 138.149 741.674 Q138.149 750.401 135.07 755.007 Q132.015 759.591 126.205 759.591 Q120.394 759.591 117.316 755.007 Q114.26 750.401 114.26 741.674 Q114.26 732.924 117.316 728.341 Q120.394 723.734 126.205 723.734 Z" fill="#000000" fill-rule="evenodd" fill-opacity="1" /><path clip-path="url(#clip650)" d="M146.366 753.04 L151.251 753.04 L151.251 758.919 L146.366 758.919 L146.366 753.04 Z" fill="#000000" fill-rule="evenodd" fill-opacity="1" /><path clip-path="url(#clip650)" d="M161.482 724.359 L179.839 724.359 L179.839 728.294 L165.765 728.294 L165.765 736.767 Q166.783 736.419 167.802 736.257 Q168.82 736.072 169.839 736.072 Q175.626 736.072 179.005 739.243 Q182.385 742.415 182.385 747.831 Q182.385 753.41 178.913 756.512 Q175.44 759.591 169.121 759.591 Q166.945 759.591 164.677 759.22 Q162.431 758.85 160.024 758.109 L160.024 753.41 Q162.107 754.544 164.329 755.1 Q166.552 755.655 169.028 755.655 Q173.033 755.655 175.371 753.549 Q177.709 751.442 177.709 747.831 Q177.709 744.22 175.371 742.114 Q173.033 740.007 169.028 740.007 Q167.153 740.007 165.278 740.424 Q163.427 740.841 161.482 741.72 L161.482 724.359 Z" fill="#000000" fill-rule="evenodd" fill-opacity="1" /><path clip-path="url(#clip650)" d="M201.598 727.438 Q197.987 727.438 196.158 731.003 Q194.352 734.544 194.352 741.674 Q194.352 748.78 196.158 752.345 Q197.987 755.887 201.598 755.887 Q205.232 755.887 207.037 752.345 Q208.866 748.78 208.866 741.674 Q208.866 734.544 207.037 731.003 Q205.232 727.438 201.598 727.438 M201.598 723.734 Q207.408 723.734 210.463 728.341 Q213.542 732.924 213.542 741.674 Q213.542 750.401 210.463 755.007 Q207.408 759.591 201.598 759.591 Q195.787 759.591 192.709 755.007 Q189.653 750.401 189.653 741.674 Q189.653 732.924 192.709 728.341 Q195.787 723.734 201.598 723.734 Z" fill="#000000" fill-rule="evenodd" fill-opacity="1" /><path clip-path="url(#clip650)" d="M127.2 406.138 Q123.589 406.138 121.76 409.703 Q119.955 413.245 119.955 420.375 Q119.955 427.481 121.76 431.046 Q123.589 434.587 127.2 434.587 Q130.834 434.587 132.64 431.046 Q134.468 427.481 134.468 420.375 Q134.468 413.245 132.64 409.703 Q130.834 406.138 127.2 406.138 M127.2 402.435 Q133.01 402.435 136.066 407.041 Q139.144 411.625 139.144 420.375 Q139.144 429.101 136.066 433.708 Q133.01 438.291 127.2 438.291 Q121.39 438.291 118.311 433.708 Q115.256 429.101 115.256 420.375 Q115.256 411.625 118.311 407.041 Q121.39 402.435 127.2 402.435 Z" fill="#000000" fill-rule="evenodd" fill-opacity="1" /><path clip-path="url(#clip650)" d="M147.362 431.74 L152.246 431.74 L152.246 437.62 L147.362 437.62 L147.362 431.74 Z" fill="#000000" fill-rule="evenodd" fill-opacity="1" /><path clip-path="url(#clip650)" d="M161.251 403.06 L183.473 403.06 L183.473 405.051 L170.927 437.62 L166.042 437.62 L177.848 406.995 L161.251 406.995 L161.251 403.06 Z" fill="#000000" fill-rule="evenodd" fill-opacity="1" /><path clip-path="url(#clip650)" d="M192.639 403.06 L210.996 403.06 L210.996 406.995 L196.922 406.995 L196.922 415.467 Q197.94 415.12 198.959 414.958 Q199.977 414.773 200.996 414.773 Q206.783 414.773 210.162 417.944 Q213.542 421.115 213.542 426.532 Q213.542 432.111 210.07 435.212 Q206.598 438.291 200.278 438.291 Q198.102 438.291 195.834 437.921 Q193.588 437.55 191.181 436.81 L191.181 432.111 Q193.264 433.245 195.487 433.8 Q197.709 434.356 200.186 434.356 Q204.19 434.356 206.528 432.249 Q208.866 430.143 208.866 426.532 Q208.866 422.921 206.528 420.814 Q204.19 418.708 200.186 418.708 Q198.311 418.708 196.436 419.125 Q194.584 419.541 192.639 420.421 L192.639 403.06 Z" fill="#000000" fill-rule="evenodd" fill-opacity="1" /><path clip-path="url(#clip650)" d="M117.015 112.385 L124.654 112.385 L124.654 86.0196 L116.343 87.6862 L116.343 83.427 L124.607 81.7603 L129.283 81.7603 L129.283 112.385 L136.922 112.385 L136.922 116.32 L117.015 116.32 L117.015 112.385 Z" fill="#000000" fill-rule="evenodd" fill-opacity="1" /><path clip-path="url(#clip650)" d="M146.366 110.441 L151.251 110.441 L151.251 116.32 L146.366 116.32 L146.366 110.441 Z" fill="#000000" fill-rule="evenodd" fill-opacity="1" /><path clip-path="url(#clip650)" d="M171.436 84.839 Q167.825 84.839 165.996 88.4038 Q164.19 91.9455 164.19 99.0751 Q164.19 106.181 165.996 109.746 Q167.825 113.288 171.436 113.288 Q175.07 113.288 176.876 109.746 Q178.704 106.181 178.704 99.0751 Q178.704 91.9455 176.876 88.4038 Q175.07 84.839 171.436 84.839 M171.436 81.1353 Q177.246 81.1353 180.301 85.7418 Q183.38 90.3251 183.38 99.0751 Q183.38 107.802 180.301 112.408 Q177.246 116.992 171.436 116.992 Q165.626 116.992 162.547 112.408 Q159.491 107.802 159.491 99.0751 Q159.491 90.3251 162.547 85.7418 Q165.626 81.1353 171.436 81.1353 Z" fill="#000000" fill-rule="evenodd" fill-opacity="1" /><path clip-path="url(#clip650)" d="M201.598 84.839 Q197.987 84.839 196.158 88.4038 Q194.352 91.9455 194.352 99.0751 Q194.352 106.181 196.158 109.746 Q197.987 113.288 201.598 113.288 Q205.232 113.288 207.037 109.746 Q208.866 106.181 208.866 99.0751 Q208.866 91.9455 207.037 88.4038 Q205.232 84.839 201.598 84.839 M201.598 81.1353 Q207.408 81.1353 210.463 85.7418 Q213.542 90.3251 213.542 99.0751 Q213.542 107.802 210.463 112.408 Q207.408 116.992 201.598 116.992 Q195.787 116.992 192.709 112.408 Q189.653 107.802 189.653 99.0751 Q189.653 90.3251 192.709 85.7418 Q195.787 81.1353 201.598 81.1353 Z" fill="#000000" fill-rule="evenodd" fill-opacity="1" /><path clip-path="url(#clip650)" d="M20.1444 904.938 L26.9239 904.938 Q23.9002 908.184 22.4043 911.876 Q20.9083 915.537 20.9083 919.674 Q20.9083 927.822 25.9054 932.151 Q30.8707 936.48 40.2919 936.48 Q49.6813 936.48 54.6784 932.151 Q59.6436 927.822 59.6436 919.674 Q59.6436 915.537 58.1477 911.876 Q56.6518 908.184 53.6281 904.938 L60.3439 904.938 Q62.6355 908.311 63.7814 912.099 Q64.9272 915.855 64.9272 920.056 Q64.9272 930.846 58.3387 937.053 Q51.7183 943.259 40.2919 943.259 Q28.8336 943.259 22.2451 937.053 Q15.6248 930.846 15.6248 920.056 Q15.6248 915.791 16.7706 912.035 Q17.8846 908.248 20.1444 904.938 Z" fill="#000000" fill-rule="evenodd" fill-opacity="1" /><path clip-path="url(#clip650)" d="M32.4621 881.448 Q32.4621 886.159 36.1542 888.896 Q39.8145 891.633 46.212 891.633 Q52.6095 891.633 56.3017 888.928 Q59.9619 886.191 59.9619 881.448 Q59.9619 876.769 56.2698 874.032 Q52.5777 871.295 46.212 871.295 Q39.8781 871.295 36.186 874.032 Q32.4621 876.769 32.4621 881.448 M27.4968 881.448 Q27.4968 873.809 32.4621 869.449 Q37.4273 865.088 46.212 865.088 Q54.9649 865.088 59.9619 869.449 Q64.9272 873.809 64.9272 881.448 Q64.9272 889.119 59.9619 893.479 Q54.9649 897.808 46.212 897.808 Q37.4273 897.808 32.4621 893.479 Q27.4968 889.119 27.4968 881.448 Z" fill="#000000" fill-rule="evenodd" fill-opacity="1" /><path clip-path="url(#clip650)" d="M42.4881 825.748 L64.0042 825.748 L64.0042 831.605 L42.679 831.605 Q37.6183 831.605 35.1038 833.578 Q32.5894 835.551 32.5894 839.498 Q32.5894 844.241 35.6131 846.978 Q38.6368 849.715 43.8567 849.715 L64.0042 849.715 L64.0042 855.603 L28.3562 855.603 L28.3562 849.715 L33.8944 849.715 Q30.6797 847.614 29.0883 844.782 Q27.4968 841.917 27.4968 838.193 Q27.4968 832.05 31.3163 828.899 Q35.1038 825.748 42.4881 825.748 Z" fill="#000000" fill-rule="evenodd" fill-opacity="1" /><path clip-path="url(#clip650)" d="M44.7161 783.575 L47.5806 783.575 L47.5806 810.502 Q53.6281 810.12 56.8109 806.874 Q59.9619 803.596 59.9619 797.771 Q59.9619 794.397 59.1344 791.246 Q58.3069 788.063 56.6518 784.944 L62.1899 784.944 Q63.5267 788.095 64.227 791.405 Q64.9272 794.715 64.9272 798.121 Q64.9272 806.651 59.9619 811.648 Q54.9967 816.613 46.5303 816.613 Q37.7774 816.613 32.6531 811.903 Q27.4968 807.16 27.4968 799.14 Q27.4968 791.946 32.1438 787.777 Q36.7589 783.575 44.7161 783.575 M42.9973 789.432 Q38.1912 789.496 35.3266 792.137 Q32.4621 794.747 32.4621 799.076 Q32.4621 803.978 35.2312 806.938 Q38.0002 809.866 43.0292 810.311 L42.9973 789.432 Z" fill="#000000" fill-rule="evenodd" fill-opacity="1" /><path clip-path="url(#clip650)" d="M42.4881 744.331 L64.0042 744.331 L64.0042 750.187 L42.679 750.187 Q37.6183 750.187 35.1038 752.161 Q32.5894 754.134 32.5894 758.081 Q32.5894 762.823 35.6131 765.56 Q38.6368 768.298 43.8567 768.298 L64.0042 768.298 L64.0042 774.186 L28.3562 774.186 L28.3562 768.298 L33.8944 768.298 Q30.6797 766.197 29.0883 763.364 Q27.4968 760.5 27.4968 756.776 Q27.4968 750.633 31.3163 747.482 Q35.1038 744.331 42.4881 744.331 Z" fill="#000000" fill-rule="evenodd" fill-opacity="1" /><path clip-path="url(#clip650)" d="M18.2347 726.857 L28.3562 726.857 L28.3562 714.794 L32.9077 714.794 L32.9077 726.857 L52.2594 726.857 Q56.6199 726.857 57.8613 725.679 Q59.1026 724.47 59.1026 720.81 L59.1026 714.794 L64.0042 714.794 L64.0042 720.81 Q64.0042 727.589 61.4897 730.167 Q58.9434 732.745 52.2594 732.745 L32.9077 732.745 L32.9077 737.042 L28.3562 737.042 L28.3562 732.745 L18.2347 732.745 L18.2347 726.857 Z" fill="#000000" fill-rule="evenodd" fill-opacity="1" /><path clip-path="url(#clip650)" d="M33.8307 686.435 Q33.2578 687.421 33.0032 688.599 Q32.7167 689.745 32.7167 691.145 Q32.7167 696.111 35.9632 698.784 Q39.1779 701.426 45.2253 701.426 L64.0042 701.426 L64.0042 707.314 L28.3562 707.314 L28.3562 701.426 L33.8944 701.426 Q30.6479 699.58 29.0883 696.62 Q27.4968 693.66 27.4968 689.427 Q27.4968 688.822 27.5923 688.09 Q27.656 687.358 27.8151 686.467 L33.8307 686.435 Z" fill="#000000" fill-rule="evenodd" fill-opacity="1" /><path clip-path="url(#clip650)" d="M46.0847 664.091 Q46.0847 671.189 47.7079 673.926 Q49.3312 676.663 53.2461 676.663 Q56.3653 676.663 58.2114 674.626 Q60.0256 672.558 60.0256 669.025 Q60.0256 664.155 56.5881 661.227 Q53.1188 658.266 47.3897 658.266 L46.0847 658.266 L46.0847 664.091 M43.6657 652.41 L64.0042 652.41 L64.0042 658.266 L58.5933 658.266 Q61.8398 660.272 63.3994 663.264 Q64.9272 666.255 64.9272 670.584 Q64.9272 676.059 61.8716 679.305 Q58.7843 682.52 53.6281 682.52 Q47.6125 682.52 44.5569 678.509 Q41.5014 674.467 41.5014 666.478 L41.5014 658.266 L40.9285 658.266 Q36.8862 658.266 34.6901 660.94 Q32.4621 663.582 32.4621 668.388 Q32.4621 671.444 33.1941 674.34 Q33.9262 677.236 35.3903 679.91 L29.9795 679.91 Q28.7381 676.695 28.1334 673.671 Q27.4968 670.648 27.4968 667.783 Q27.4968 660.049 31.5072 656.229 Q35.5176 652.41 43.6657 652.41 Z" fill="#000000" fill-rule="evenodd" fill-opacity="1" /><path clip-path="url(#clip650)" d="M18.2347 634.554 L28.3562 634.554 L28.3562 622.491 L32.9077 622.491 L32.9077 634.554 L52.2594 634.554 Q56.6199 634.554 57.8613 633.377 Q59.1026 632.167 59.1026 628.507 L59.1026 622.491 L64.0042 622.491 L64.0042 628.507 Q64.0042 635.286 61.4897 637.864 Q58.9434 640.443 52.2594 640.443 L32.9077 640.443 L32.9077 644.739 L28.3562 644.739 L28.3562 640.443 L18.2347 640.443 L18.2347 634.554 Z" fill="#000000" fill-rule="evenodd" fill-opacity="1" /><path clip-path="url(#clip650)" d="M28.3562 614.789 L28.3562 608.932 L64.0042 608.932 L64.0042 614.789 L28.3562 614.789 M14.479 614.789 L14.479 608.932 L21.895 608.932 L21.895 614.789 L14.479 614.789 Z" fill="#000000" fill-rule="evenodd" fill-opacity="1" /><path clip-path="url(#clip650)" d="M32.4621 582.865 Q32.4621 587.575 36.1542 590.313 Q39.8145 593.05 46.212 593.05 Q52.6095 593.05 56.3017 590.344 Q59.9619 587.607 59.9619 582.865 Q59.9619 578.186 56.2698 575.449 Q52.5777 572.711 46.212 572.711 Q39.8781 572.711 36.186 575.449 Q32.4621 578.186 32.4621 582.865 M27.4968 582.865 Q27.4968 575.226 32.4621 570.865 Q37.4273 566.505 46.212 566.505 Q54.9649 566.505 59.9619 570.865 Q64.9272 575.226 64.9272 582.865 Q64.9272 590.535 59.9619 594.896 Q54.9649 599.225 46.212 599.225 Q37.4273 599.225 32.4621 594.896 Q27.4968 590.535 27.4968 582.865 Z" fill="#000000" fill-rule="evenodd" fill-opacity="1" /><path clip-path="url(#clip650)" d="M42.4881 527.165 L64.0042 527.165 L64.0042 533.021 L42.679 533.021 Q37.6183 533.021 35.1038 534.995 Q32.5894 536.968 32.5894 540.915 Q32.5894 545.657 35.6131 548.394 Q38.6368 551.132 43.8567 551.132 L64.0042 551.132 L64.0042 557.02 L28.3562 557.02 L28.3562 551.132 L33.8944 551.132 Q30.6797 549.031 29.0883 546.198 Q27.4968 543.334 27.4968 539.61 Q27.4968 533.467 31.3163 530.316 Q35.1038 527.165 42.4881 527.165 Z" fill="#000000" fill-rule="evenodd" fill-opacity="1" /><polyline clip-path="url(#clip652)" style="stroke:#009af9; stroke-linecap:round; stroke-linejoin:round; stroke-width:20; stroke-opacity:1; fill:none" points="
  309.067,1371.39 309.214,1352.43 310.514,1196.98 313.323,923.574 317.135,657.823 322.212,431.849 328.924,267.717 337.727,171.39 349.291,130.645 364.638,125.184 
  385.545,138.612 415.484,165.228 462.313,211.879 547.593,307.856 678.675,473.683 836.008,681.057 1035.62,921.463 1278.87,1141.84 1538.22,1281.14 1761.55,1341.17 
  1982.14,1368.17 2184.45,1378.4 2293.23,1381 
  "/>
<polyline clip-path="url(#clip652)" style="stroke:#e26f46; stroke-linecap:round; stroke-linejoin:round; stroke-width:20; stroke-opacity:1; fill:none" points="
  309.067,1384.24 309.214,1384.24 310.514,1384.16 313.323,1383.69 317.135,1382.5 322.212,1380.21 328.924,1376.38 337.727,1370.54 349.291,1362.07 364.638,1349.99 
  385.545,1332.39 415.484,1305.22 462.313,1258.55 547.593,1162.57 678.675,996.741 836.008,789.367 1035.62,548.961 1278.87,328.588 1538.22,189.289 1761.55,129.254 
  1982.14,102.25 2184.45,92.0193 2293.23,89.4258 
  "/>
<polyline clip-path="url(#clip652)" style="stroke:#3da44d; stroke-linecap:round; stroke-linejoin:round; stroke-width:20; stroke-opacity:1; fill:none" points="
  309.067,1371.39 309.214,1352.43 310.514,1196.91 313.323,923.024 317.135,656.08 322.212,427.816 328.924,259.857 337.727,157.691 349.291,108.479 364.638,90.9327 
  385.545,86.7633 415.484,86.2142 462.313,86.1859 547.593,86.1857 678.675,86.1857 836.008,86.1857 1035.62,86.1857 1278.87,86.1857 1538.22,86.1857 1761.55,86.1857 
  1982.14,86.1857 2184.45,86.1857 2293.23,86.1857 
  "/>
<path clip-path="url(#clip650)" d="
M1845.49 812.972 L2282.65 812.972 L2282.65 605.612 L1845.49 605.612  Z
  " fill="#ffffff" fill-rule="evenodd" fill-opacity="1"/>
<polyline clip-path="url(#clip650)" style="stroke:#000000; stroke-linecap:round; stroke-linejoin:round; stroke-width:4; stroke-opacity:1; fill:none" points="
  1845.49,812.972 2282.65,812.972 2282.65,605.612 1845.49,605.612 1845.49,812.972 
  "/>
<polyline clip-path="url(#clip650)" style="stroke:#009af9; stroke-linecap:round; stroke-linejoin:round; stroke-width:4; stroke-opacity:1; fill:none" points="
  1868.86,657.452 2009.07,657.452 
  "/>
<path clip-path="url(#clip650)" d="M2080.5 634.805 Q2080.5 635.484 2080.2 635.625 Q2079.92 635.765 2078.98 635.765 Q2077.88 635.765 2077.2 635.859 Q2076.52 635.929 2076.1 636.046 Q2075.68 636.14 2075.42 636.468 Q2075.18 636.796 2075.09 637.077 Q2075 637.334 2074.83 637.967 L2068.46 663.521 Q2068.23 664.387 2068.23 664.692 Q2068.23 664.996 2068.42 665.184 Q2068.63 665.371 2069.14 665.465 Q2069.66 665.535 2070.05 665.558 Q2070.48 665.558 2071.34 665.558 Q2072.42 665.558 2072.58 665.746 Q2072.68 665.863 2072.68 666.074 Q2072.68 666.519 2072.49 666.753 Q2072.3 666.964 2072.14 667.011 Q2072 667.034 2071.76 667.034 Q2070.78 667.034 2068.77 666.964 Q2066.75 666.893 2065.77 666.893 L2059.82 667.034 Q2059.12 667.034 2059.12 666.448 Q2059.12 666.003 2059.3 665.816 Q2059.49 665.605 2059.7 665.582 Q2059.91 665.558 2060.45 665.558 Q2062.37 665.558 2063.19 665.348 Q2064.04 665.137 2064.27 664.762 Q2064.53 664.364 2064.81 663.286 L2071.67 635.812 L2071.62 635.812 L2052.25 666.167 L2052.11 666.378 Q2051.97 666.566 2051.93 666.636 Q2051.88 666.683 2051.74 666.823 Q2051.62 666.94 2051.48 666.987 Q2051.36 667.034 2051.2 667.034 Q2050.92 667.034 2050.75 666.847 Q2050.61 666.659 2050.57 666.519 Q2050.54 666.355 2050.47 665.933 L2046.35 636.187 L2046.3 636.187 L2039.77 662.326 Q2039.58 663.052 2039.58 663.427 Q2039.58 664.387 2040.26 664.973 Q2040.96 665.535 2042.84 665.558 Q2043.7 665.558 2043.7 666.074 Q2043.7 667.034 2042.84 667.034 Q2042.04 667.034 2040.38 666.964 Q2038.72 666.893 2037.9 666.893 Q2037.1 666.893 2035.48 666.964 Q2033.89 667.034 2033.12 667.034 Q2032.44 667.034 2032.44 666.448 Q2032.44 665.558 2033.3 665.558 Q2034.71 665.512 2035.67 665.23 Q2036.63 664.949 2037.17 664.411 Q2037.73 663.872 2037.99 663.333 Q2038.27 662.771 2038.48 661.951 L2044.57 637.522 Q2044.76 636.749 2044.76 636.632 Q2044.76 636.233 2044.52 636.093 Q2044.31 635.929 2043.7 635.859 Q2042.53 635.765 2041.64 635.765 Q2041.06 635.765 2040.82 635.742 Q2040.61 635.718 2040.43 635.601 Q2040.26 635.461 2040.26 635.179 Q2040.26 634.734 2040.45 634.547 Q2040.66 634.336 2040.89 634.313 Q2041.13 634.266 2041.69 634.266 L2048.27 634.266 Q2049.23 634.266 2049.44 634.43 Q2049.65 634.57 2049.75 635.367 L2053.5 662.513 L2071.02 635.179 Q2071.46 634.5 2071.69 634.383 Q2071.93 634.266 2072.87 634.266 L2079.21 634.266 Q2079.73 634.266 2079.94 634.289 Q2080.15 634.313 2080.31 634.43 Q2080.5 634.547 2080.5 634.805 Z" fill="#000000" fill-rule="evenodd" fill-opacity="1" /><path clip-path="url(#clip650)" d="M2085.15 661.156 L2085.15 660.107 Q2089.19 660.107 2091.27 657.959 Q2091.84 657.959 2091.94 658.09 Q2092.04 658.222 2092.04 658.828 L2092.04 677.667 Q2092.04 678.667 2092.53 678.979 Q2093.02 679.29 2095.17 679.29 L2096.24 679.29 L2096.24 680.323 Q2095.06 680.225 2090.79 680.225 Q2086.53 680.225 2085.37 680.323 L2085.37 679.29 L2086.43 679.29 Q2088.55 679.29 2089.05 678.995 Q2089.56 678.683 2089.56 677.667 L2089.56 660.271 Q2087.81 661.156 2085.15 661.156 Z" fill="#000000" fill-rule="evenodd" fill-opacity="1" /><polyline clip-path="url(#clip650)" style="stroke:#e26f46; stroke-linecap:round; stroke-linejoin:round; stroke-width:4; stroke-opacity:1; fill:none" points="
  1868.86,709.292 2009.07,709.292 
  "/>
<path clip-path="url(#clip650)" d="M2080.5 686.645 Q2080.5 687.324 2080.2 687.465 Q2079.92 687.605 2078.98 687.605 Q2077.88 687.605 2077.2 687.699 Q2076.52 687.769 2076.1 687.886 Q2075.68 687.98 2075.42 688.308 Q2075.18 688.636 2075.09 688.917 Q2075 689.174 2074.83 689.807 L2068.46 715.361 Q2068.23 716.227 2068.23 716.532 Q2068.23 716.836 2068.42 717.024 Q2068.63 717.211 2069.14 717.305 Q2069.66 717.375 2070.05 717.398 Q2070.48 717.398 2071.34 717.398 Q2072.42 717.398 2072.58 717.586 Q2072.68 717.703 2072.68 717.914 Q2072.68 718.359 2072.49 718.593 Q2072.3 718.804 2072.14 718.851 Q2072 718.874 2071.76 718.874 Q2070.78 718.874 2068.77 718.804 Q2066.75 718.733 2065.77 718.733 L2059.82 718.874 Q2059.12 718.874 2059.12 718.288 Q2059.12 717.843 2059.3 717.656 Q2059.49 717.445 2059.7 717.422 Q2059.91 717.398 2060.45 717.398 Q2062.37 717.398 2063.19 717.188 Q2064.04 716.977 2064.27 716.602 Q2064.53 716.204 2064.81 715.126 L2071.67 687.652 L2071.62 687.652 L2052.25 718.007 L2052.11 718.218 Q2051.97 718.406 2051.93 718.476 Q2051.88 718.523 2051.74 718.663 Q2051.62 718.78 2051.48 718.827 Q2051.36 718.874 2051.2 718.874 Q2050.92 718.874 2050.75 718.687 Q2050.61 718.499 2050.57 718.359 Q2050.54 718.195 2050.47 717.773 L2046.35 688.027 L2046.3 688.027 L2039.77 714.166 Q2039.58 714.892 2039.58 715.267 Q2039.58 716.227 2040.26 716.813 Q2040.96 717.375 2042.84 717.398 Q2043.7 717.398 2043.7 717.914 Q2043.7 718.874 2042.84 718.874 Q2042.04 718.874 2040.38 718.804 Q2038.72 718.733 2037.9 718.733 Q2037.1 718.733 2035.48 718.804 Q2033.89 718.874 2033.12 718.874 Q2032.44 718.874 2032.44 718.288 Q2032.44 717.398 2033.3 717.398 Q2034.71 717.352 2035.67 717.07 Q2036.63 716.789 2037.17 716.251 Q2037.73 715.712 2037.99 715.173 Q2038.27 714.611 2038.48 713.791 L2044.57 689.362 Q2044.76 688.589 2044.76 688.472 Q2044.76 688.073 2044.52 687.933 Q2044.31 687.769 2043.7 687.699 Q2042.53 687.605 2041.64 687.605 Q2041.06 687.605 2040.82 687.582 Q2040.61 687.558 2040.43 687.441 Q2040.26 687.301 2040.26 687.019 Q2040.26 686.574 2040.45 686.387 Q2040.66 686.176 2040.89 686.153 Q2041.13 686.106 2041.69 686.106 L2048.27 686.106 Q2049.23 686.106 2049.44 686.27 Q2049.65 686.41 2049.75 687.207 L2053.5 714.353 L2071.02 687.019 Q2071.46 686.34 2071.69 686.223 Q2071.93 686.106 2072.87 686.106 L2079.21 686.106 Q2079.73 686.106 2079.94 686.129 Q2080.15 686.153 2080.31 686.27 Q2080.5 686.387 2080.5 686.645 Z" fill="#000000" fill-rule="evenodd" fill-opacity="1" /><path clip-path="url(#clip650)" d="M2085.15 732.163 Q2085.15 731.556 2085.2 731.376 Q2085.27 731.196 2085.53 730.917 L2091.97 723.736 Q2095.5 719.768 2095.5 716.308 Q2095.5 714.062 2094.32 712.455 Q2093.15 710.849 2091.01 710.849 Q2089.53 710.849 2088.28 711.75 Q2087.04 712.652 2086.46 714.259 Q2086.56 714.226 2086.91 714.226 Q2087.74 714.226 2088.2 714.751 Q2088.68 715.275 2088.68 715.98 Q2088.68 716.882 2088.09 717.325 Q2087.51 717.751 2086.94 717.751 Q2086.71 717.751 2086.4 717.702 Q2086.1 717.653 2085.63 717.194 Q2085.15 716.718 2085.15 715.882 Q2085.15 713.538 2086.92 711.668 Q2088.71 709.799 2091.43 709.799 Q2094.51 709.799 2096.53 711.636 Q2098.56 713.456 2098.56 716.308 Q2098.56 717.309 2098.25 718.227 Q2097.96 719.128 2097.55 719.833 Q2097.15 720.539 2096.07 721.67 Q2094.99 722.801 2094.12 723.605 Q2093.25 724.408 2091.3 726.113 L2087.74 729.573 L2093.79 729.573 Q2096.74 729.573 2096.97 729.31 Q2097.3 728.835 2097.71 726.326 L2098.56 726.326 L2097.61 732.163 L2085.15 732.163 Z" fill="#000000" fill-rule="evenodd" fill-opacity="1" /><polyline clip-path="url(#clip650)" style="stroke:#3da44d; stroke-linecap:round; stroke-linejoin:round; stroke-width:4; stroke-opacity:1; fill:none" points="
  1868.86,761.132 2009.07,761.132 
  "/>
<path clip-path="url(#clip650)" d="M2080.5 738.485 Q2080.5 739.164 2080.2 739.305 Q2079.92 739.445 2078.98 739.445 Q2077.88 739.445 2077.2 739.539 Q2076.52 739.609 2076.1 739.726 Q2075.68 739.82 2075.42 740.148 Q2075.18 740.476 2075.09 740.757 Q2075 741.014 2074.83 741.647 L2068.46 767.201 Q2068.23 768.067 2068.23 768.372 Q2068.23 768.676 2068.42 768.864 Q2068.63 769.051 2069.14 769.145 Q2069.66 769.215 2070.05 769.238 Q2070.48 769.238 2071.34 769.238 Q2072.42 769.238 2072.58 769.426 Q2072.68 769.543 2072.68 769.754 Q2072.68 770.199 2072.49 770.433 Q2072.3 770.644 2072.14 770.691 Q2072 770.714 2071.76 770.714 Q2070.78 770.714 2068.77 770.644 Q2066.75 770.573 2065.77 770.573 L2059.82 770.714 Q2059.12 770.714 2059.12 770.128 Q2059.12 769.683 2059.3 769.496 Q2059.49 769.285 2059.7 769.262 Q2059.91 769.238 2060.45 769.238 Q2062.37 769.238 2063.19 769.028 Q2064.04 768.817 2064.27 768.442 Q2064.53 768.044 2064.81 766.966 L2071.67 739.492 L2071.62 739.492 L2052.25 769.847 L2052.11 770.058 Q2051.97 770.246 2051.93 770.316 Q2051.88 770.363 2051.74 770.503 Q2051.62 770.62 2051.48 770.667 Q2051.36 770.714 2051.2 770.714 Q2050.92 770.714 2050.75 770.527 Q2050.61 770.339 2050.57 770.199 Q2050.54 770.035 2050.47 769.613 L2046.35 739.867 L2046.3 739.867 L2039.77 766.006 Q2039.58 766.732 2039.58 767.107 Q2039.58 768.067 2040.26 768.653 Q2040.96 769.215 2042.84 769.238 Q2043.7 769.238 2043.7 769.754 Q2043.7 770.714 2042.84 770.714 Q2042.04 770.714 2040.38 770.644 Q2038.72 770.573 2037.9 770.573 Q2037.1 770.573 2035.48 770.644 Q2033.89 770.714 2033.12 770.714 Q2032.44 770.714 2032.44 770.128 Q2032.44 769.238 2033.3 769.238 Q2034.71 769.192 2035.67 768.91 Q2036.63 768.629 2037.17 768.091 Q2037.73 767.552 2037.99 767.013 Q2038.27 766.451 2038.48 765.631 L2044.57 741.202 Q2044.76 740.429 2044.76 740.312 Q2044.76 739.913 2044.52 739.773 Q2044.31 739.609 2043.7 739.539 Q2042.53 739.445 2041.64 739.445 Q2041.06 739.445 2040.82 739.422 Q2040.61 739.398 2040.43 739.281 Q2040.26 739.141 2040.26 738.859 Q2040.26 738.414 2040.45 738.227 Q2040.66 738.016 2040.89 737.993 Q2041.13 737.946 2041.69 737.946 L2048.27 737.946 Q2049.23 737.946 2049.44 738.11 Q2049.65 738.25 2049.75 739.047 L2053.5 766.193 L2071.02 738.859 Q2071.46 738.18 2071.69 738.063 Q2071.93 737.946 2072.87 737.946 L2079.21 737.946 Q2079.73 737.946 2079.94 737.969 Q2080.15 737.993 2080.31 738.11 Q2080.5 738.227 2080.5 738.485 Z" fill="#000000" fill-rule="evenodd" fill-opacity="1" /><path clip-path="url(#clip650)" d="M2085.15 764.836 L2085.15 763.787 Q2089.19 763.787 2091.27 761.639 Q2091.84 761.639 2091.94 761.77 Q2092.04 761.902 2092.04 762.508 L2092.04 781.347 Q2092.04 782.347 2092.53 782.659 Q2093.02 782.97 2095.17 782.97 L2096.24 782.97 L2096.24 784.003 Q2095.06 783.905 2090.79 783.905 Q2086.53 783.905 2085.37 784.003 L2085.37 782.97 L2086.43 782.97 Q2088.55 782.97 2089.05 782.675 Q2089.56 782.363 2089.56 781.347 L2089.56 763.951 Q2087.81 764.836 2085.15 764.836 Z" fill="#000000" fill-rule="evenodd" fill-opacity="1" /><path clip-path="url(#clip650)" d="M2115.65 759.307 Q2114.55 759.307 2114.55 758.722 Q2114.55 758.136 2115.69 758.136 Q2115.84 758.136 2116.07 758.16 Q2116.33 758.183 2116.37 758.183 L2129.89 758.183 L2129.89 744.621 Q2129.89 744.575 2129.87 744.364 Q2129.84 744.13 2129.84 743.989 Q2129.84 742.841 2130.4 742.841 Q2130.99 742.841 2130.99 743.989 L2130.99 758.183 L2144.53 758.183 Q2144.57 758.183 2144.81 758.16 Q2145.04 758.136 2145.18 758.136 Q2146.28 758.136 2146.28 758.722 Q2146.31 759.307 2145.14 759.307 Q2145 759.307 2144.79 759.284 Q2144.57 759.26 2144.53 759.26 L2130.99 759.26 L2130.99 773.501 Q2130.99 774.602 2130.4 774.602 Q2129.84 774.602 2129.84 773.454 Q2129.84 773.314 2129.87 773.08 Q2129.89 772.869 2129.89 772.822 L2129.89 759.26 L2116.37 759.26 Q2116.33 759.26 2116.05 759.284 Q2115.79 759.307 2115.65 759.307 Z" fill="#000000" fill-rule="evenodd" fill-opacity="1" /><path clip-path="url(#clip650)" d="M2212.86 738.485 Q2212.86 739.164 2212.56 739.305 Q2212.28 739.445 2211.34 739.445 Q2210.24 739.445 2209.56 739.539 Q2208.88 739.609 2208.46 739.726 Q2208.04 739.82 2207.78 740.148 Q2207.54 740.476 2207.45 740.757 Q2207.36 741.014 2207.19 741.647 L2200.82 767.201 Q2200.59 768.067 2200.59 768.372 Q2200.59 768.676 2200.78 768.864 Q2200.99 769.051 2201.5 769.145 Q2202.02 769.215 2202.42 769.238 Q2202.84 769.238 2203.7 769.238 Q2204.78 769.238 2204.94 769.426 Q2205.04 769.543 2205.04 769.754 Q2205.04 770.199 2204.85 770.433 Q2204.66 770.644 2204.5 770.691 Q2204.36 770.714 2204.13 770.714 Q2203.14 770.714 2201.13 770.644 Q2199.11 770.573 2198.13 770.573 L2192.18 770.714 Q2191.48 770.714 2191.48 770.128 Q2191.48 769.683 2191.66 769.496 Q2191.85 769.285 2192.06 769.262 Q2192.27 769.238 2192.81 769.238 Q2194.73 769.238 2195.55 769.028 Q2196.4 768.817 2196.63 768.442 Q2196.89 768.044 2197.17 766.966 L2204.03 739.492 L2203.98 739.492 L2184.61 769.847 L2184.47 770.058 Q2184.33 770.246 2184.29 770.316 Q2184.24 770.363 2184.1 770.503 Q2183.98 770.62 2183.84 770.667 Q2183.72 770.714 2183.56 770.714 Q2183.28 770.714 2183.12 770.527 Q2182.97 770.339 2182.93 770.199 Q2182.9 770.035 2182.83 769.613 L2178.71 739.867 L2178.66 739.867 L2172.13 766.006 Q2171.94 766.732 2171.94 767.107 Q2171.94 768.067 2172.62 768.653 Q2173.32 769.215 2175.2 769.238 Q2176.07 769.238 2176.07 769.754 Q2176.07 770.714 2175.2 770.714 Q2174.4 770.714 2172.74 770.644 Q2171.08 770.573 2170.26 770.573 Q2169.46 770.573 2167.84 770.644 Q2166.25 770.714 2165.48 770.714 Q2164.8 770.714 2164.8 770.128 Q2164.8 769.238 2165.67 769.238 Q2167.07 769.192 2168.03 768.91 Q2168.99 768.629 2169.53 768.091 Q2170.09 767.552 2170.35 767.013 Q2170.63 766.451 2170.84 765.631 L2176.93 741.202 Q2177.12 740.429 2177.12 740.312 Q2177.12 739.913 2176.88 739.773 Q2176.67 739.609 2176.07 739.539 Q2174.89 739.445 2174 739.445 Q2173.42 739.445 2173.18 739.422 Q2172.97 739.398 2172.79 739.281 Q2172.62 739.141 2172.62 738.859 Q2172.62 738.414 2172.81 738.227 Q2173.02 738.016 2173.25 737.993 Q2173.49 737.946 2174.05 737.946 L2180.63 737.946 Q2181.59 737.946 2181.8 738.11 Q2182.01 738.25 2182.11 739.047 L2185.86 766.193 L2203.38 738.859 Q2203.82 738.18 2204.05 738.063 Q2204.29 737.946 2205.23 737.946 L2211.57 737.946 Q2212.09 737.946 2212.3 737.969 Q2212.51 737.993 2212.67 738.11 Q2212.86 738.227 2212.86 738.485 Z" fill="#000000" fill-rule="evenodd" fill-opacity="1" /><path clip-path="url(#clip650)" d="M2217.51 784.003 Q2217.51 783.396 2217.56 783.216 Q2217.63 783.036 2217.89 782.757 L2224.33 775.576 Q2227.86 771.608 2227.86 768.148 Q2227.86 765.902 2226.68 764.295 Q2225.51 762.689 2223.37 762.689 Q2221.89 762.689 2220.64 763.59 Q2219.4 764.492 2218.82 766.099 Q2218.92 766.066 2219.27 766.066 Q2220.1 766.066 2220.56 766.591 Q2221.04 767.115 2221.04 767.82 Q2221.04 768.722 2220.45 769.165 Q2219.87 769.591 2219.3 769.591 Q2219.07 769.591 2218.76 769.542 Q2218.46 769.493 2217.99 769.034 Q2217.51 768.558 2217.51 767.722 Q2217.51 765.378 2219.28 763.508 Q2221.07 761.639 2223.79 761.639 Q2226.87 761.639 2228.89 763.476 Q2230.92 765.296 2230.92 768.148 Q2230.92 769.149 2230.61 770.067 Q2230.32 770.968 2229.91 771.673 Q2229.51 772.379 2228.43 773.51 Q2227.35 774.641 2226.48 775.445 Q2225.61 776.248 2223.66 777.953 L2220.1 781.413 L2226.15 781.413 Q2229.1 781.413 2229.33 781.15 Q2229.66 780.675 2230.07 778.166 L2230.92 778.166 L2229.97 784.003 L2217.51 784.003 Z" fill="#000000" fill-rule="evenodd" fill-opacity="1" /></svg>
